<svg xmlns="http://www.w3.org/2000/svg" viewBox="0 0 263 208" role="img" aria-labelledby="title">
  <title id="title">St. Francis Xavier College San Francisco Agusan del Sur</title>
  <rect width="263" height="208" fill="#064719"/>

  <g transform="translate(64 12)">
    <path d="M67.5 2 87 15.5c9.5 1 18.5-1 26-5.5 9.5 21.5 8.5 45.5 1 65.5-7.5 20.2-24.8 37.2-46.5 49.2C45.8 112.7 28.5 95.7 21 75.5 13.5 55.5 12.5 31.5 22 10c7.5 4.5 16.5 6.5 26 5.5L67.5 2Z" fill="#d9ba55"/>
    <path d="M67.5 10.5 84.2 22c7.3.7 14.2-.7 20.5-3.6 6.5 18 5.6 37.8-.9 54-6.4 16.2-19.8 30.1-36.3 40-16.5-9.9-29.9-23.8-36.3-40-6.5-16.2-7.4-36-.9-54 6.3 2.9 13.2 4.3 20.5 3.6l16.7-11.5Z" fill="#ffffff"/>
    <path d="M67.5 17.5 84 28c5.4.7 10.2 0 15.2-1.7 4.3 15.6 3.4 31.8-2.2 45.5-5.7 13.9-16.5 25.8-29.5 34.3-13-8.5-23.8-20.4-29.5-34.3-5.6-13.7-6.5-29.9-2.2-45.5C40.8 28 45.6 28.7 51 28l16.5-10.5Z" fill="#0b5a32"/>
    <path d="M67.5 17.5 84 28c5.4.7 10.2 0 15.2-1.7 3.2 11.7 3.5 23.8.9 35.1H67.5V17.5Z" fill="#f2c83e"/>
    <path d="M67.5 61.4h32.6c-.7 3.6-1.7 7.1-3.1 10.4-5.7 13.9-16.5 25.8-29.5 34.3V61.4Z" fill="#0b3558"/>

    <path d="M42 58h15V35h11v23h15v11H68v31H57V69H42V58Z" fill="#ffffff"/>
    <path d="M79 39c11.5-6.5 22-1.6 26.5 8.5-9.2-4.3-17.8-4-26.5 2.2V39Z" fill="#ffffff"/>
    <path d="M56 81c-6-7-10.5-12-18-13.8 6.2-.7 11.6.6 16.5 3.6-4.8-8.3-10-14-18-17 9.2 1 16.4 5.2 21.5 12.4V45h7v56h-7V77.5c-5.7-4.6-11.2-6.5-17.5-5.4C47 73.7 52.1 76.4 56 81Z" fill="#ffffff"/>
    <path d="M89 100c-5.8-14.7-4.5-28.7 4-42M77 100c4.8-14.3 3.6-27.8-4-42" fill="none" stroke="#ffffff" stroke-width="3.5" stroke-linecap="round"/>
    <g fill="#ffffff">
      <circle cx="90" cy="77" r="1.5"/><circle cx="95" cy="74" r="1.5"/><circle cx="99" cy="78" r="1.5"/>
      <circle cx="84" cy="72" r="1.5"/><circle cx="88" cy="68" r="1.5"/><circle cx="93" cy="68" r="1.5"/>
      <circle cx="79" cy="83" r="1.5"/><circle cx="84" cy="86" r="1.5"/><circle cx="90" cy="86" r="1.5"/>
      <circle cx="96" cy="85" r="1.5"/><circle cx="101" cy="88" r="1.5"/><circle cx="87" cy="92" r="1.5"/>
      <circle cx="94" cy="94" r="1.5"/><circle cx="101" cy="95" r="1.5"/>
    </g>

    <path d="M11 103c38 9.5 75 9.5 113 0l-9 21c-31 10.5-64 10.5-95 0l-9-21Z" fill="#f2c83e"/>
    <path d="M16 108c34 7 69 7 103 0" fill="none" stroke="#ffffff" stroke-width="2"/>
    <path d="M22 121c29 7.2 62 7.2 91 0" fill="none" stroke="#b08b1e" stroke-width="1.4"/>
    <text x="67.5" y="120" text-anchor="middle" font-family="Georgia, 'Times New Roman', serif" font-size="9" font-weight="700" fill="#17220e" transform="rotate(-6 67.5 120)">DEO OPTIMO MAXIMO</text>
  </g>

  <g text-anchor="middle" font-family="Georgia, 'Times New Roman', serif">
    <text x="131.5" y="176" font-size="19" font-variant="small-caps" fill="#f5f1d3" stroke="#d5c991" stroke-width=".35">St. Francis Xavier College</text>
    <line x1="13" y1="181" x2="250" y2="181" stroke="#d5c991" stroke-width="1"/>
    <text x="131.5" y="194" font-size="11" letter-spacing="1.2" fill="#f5f1d3">SAN FRANCISCO - AGUSAN DEL SUR</text>
  </g>
</svg>
